<svg xmlns="http://www.w3.org/2000/svg" width="273" height="273" viewBox="0 0 273 273">
  <g id="edit" transform="translate(1218 -234)">
    <circle id="Ellipse_2" data-name="Ellipse 2" cx="136.5" cy="136.5" r="136.5" transform="translate(-1218 234)" fill="#0e3d50"/>
    <g id="edit-2" data-name="edit" transform="translate(-1145 306.996)">
      <path id="Path_4" data-name="Path 4" d="M121.744,38.14l-5.585,5.587L82.647,10.22l5.585-5.588a15.8,15.8,0,0,1,22.343,0L121.744,15.8A15.807,15.807,0,0,1,121.744,38.14ZM43.552,105.15a3.948,3.948,0,0,0,5.584,5.583l61.439-61.422-5.591-5.588ZM15.626,77.23a3.948,3.948,0,0,0,5.584,5.584L82.647,21.387,77.064,15.8Zm72.6-50.263L26.793,88.4a7.9,7.9,0,1,0,11.176,11.16L99.4,38.14ZM37.953,116.3a11.526,11.526,0,0,1-3.138-6.758,15.941,15.941,0,0,1-2.438.239,15.43,15.43,0,0,1-15.572-18.07A11.715,11.715,0,0,1,10.042,88.4c-.178-.176-.239-.416-.4-.609L0,126.367l38.478-9.632C38.308,116.58,38.116,116.465,37.953,116.3Z" transform="translate(0 0)" fill="#fff"/>
    </g>
  </g>
</svg>
