<svg xmlns="http://www.w3.org/2000/svg" width="511.999" height="512.013" viewBox="0 0 511.999 512.013">
  <g id="extend" transform="translate(-0.004 0.001)">
    <path id="Path_269" data-name="Path 269" d="M256,490.68a21.328,21.328,0,0,1-21.332-21.336v-256a21.334,21.334,0,0,1,42.668,0v256A21.329,21.329,0,0,1,256,490.68Zm0,0" fill="#607d8b"/>
    <path id="Path_270" data-name="Path 270" d="M465.285,180.063l-135.063,135.1c-.277.234-2.023,1.77-2.281,2.027A26.352,26.352,0,0,0,320,336.012a27,27,0,0,0,7.043,18.133L465.519,503.286a27.021,27.021,0,0,0,19.82,8.727A26.7,26.7,0,0,0,512,485.344v-288c0-21.738-26.984-37.652-46.719-17.281Zm0,0" fill="#b0bec5"/>
    <path id="Path_271" data-name="Path 271" d="M182.641,315.957,47.559,180.937c-.258-.3-1.812-2.09-2.113-2.367a26.377,26.377,0,0,0-18.773-7.891A26.7,26.7,0,0,0,0,197.343v288a26.72,26.72,0,0,0,46.3,18.133L185.18,353.91a26.812,26.812,0,0,0,6.824-17.9c0-7.062-2.812-13.738-9.363-20.055Zm0,0" fill="#b0bec5"/>
    <path id="Path_272" data-name="Path 272" d="M416.793,1.227A15.929,15.929,0,0,0,399.367,4.7L360.262,43.809c-35.82-27.82-79.871-43.8-125.59-43.8-62.4,0-120.875,28.246-160.426,77.523A21.328,21.328,0,1,0,107.5,104.246C138.929,65.121,185.285,42.68,234.672,42.68c34.367,0,67.586,11.453,95.211,31.508l-47.852,47.852a15.99,15.99,0,0,0,11.309,27.3H410.671a16.006,16.006,0,0,0,16-16V16.012a16.016,16.016,0,0,0-9.879-14.785Zm0,0" fill="#0e3d50"/>
  </g>
</svg>
