<svg xmlns="http://www.w3.org/2000/svg" width="55" height="56" viewBox="0 0 55 56">
  <g id="selectall" transform="translate(-0.5)">
    <g id="Group_11" data-name="Group 11">
      <path id="Path_273" data-name="Path 273" d="M44.136,52H8.864A8.364,8.364,0,0,1,.5,43.636V8.364A8.364,8.364,0,0,1,8.864,0H44.136A8.364,8.364,0,0,1,52.5,8.364V43.636A8.364,8.364,0,0,1,44.136,52Z" fill="#0e3d50"/>
      <path id="Path_274" data-name="Path 274" d="M44.5,14h-18a1,1,0,0,1,0-2h18a1,1,0,0,1,0,2Z" fill="#fff"/>
      <path id="Path_275" data-name="Path 275" d="M44.5,28h-18a1,1,0,0,1,0-2h18a1,1,0,0,1,0,2Z" fill="#fff"/>
      <path id="Path_276" data-name="Path 276" d="M44.5,42h-18a1,1,0,0,1,0-2h18a1,1,0,0,1,0,2Z" fill="#fff"/>
      <path id="Path_277" data-name="Path 277" d="M12.571,17a1,1,0,0,1-.6-.2L7.4,13.371a1,1,0,1,1,1.2-1.6l3.822,2.866L18.67,7.35a1,1,0,0,1,1.518,1.3l-6.857,8A1,1,0,0,1,12.571,17Z" fill="#fff"/>
      <path id="Path_278" data-name="Path 278" d="M12.571,31a1,1,0,0,1-.6-.2L7.4,27.371a1,1,0,1,1,1.2-1.6l3.822,2.866L18.67,21.35a1,1,0,0,1,1.518,1.3l-6.857,8A1,1,0,0,1,12.571,31Z" fill="#fff"/>
      <path id="Path_279" data-name="Path 279" d="M12.571,46a1,1,0,0,1-.6-.2L7.4,42.37a1,1,0,1,1,1.2-1.6l3.822,2.866L18.67,36.35a1,1,0,0,1,1.518,1.3l-6.857,8A1,1,0,0,1,12.571,46Z" fill="#fff"/>
    </g>
    <g id="Group_12" data-name="Group 12">
      <circle id="Ellipse_7" data-name="Ellipse 7" cx="12" cy="12" r="12" transform="translate(31.5 32)" fill="#26b999"/>
      <path id="Path_280" data-name="Path 280" d="M50.071,38.179a1,1,0,0,0-1.392.25l-5.6,8.04-3.949-3.242a1,1,0,1,0-1.268,1.546L42.652,48.7a1,1,0,0,0,.634.227,1.062,1.062,0,0,0,.137-.009,1,1,0,0,0,.684-.419l6.214-8.929A1,1,0,0,0,50.071,38.179Z" fill="#fff"/>
    </g>
  </g>
</svg>
