<svg xmlns="http://www.w3.org/2000/svg" width="55" height="56" viewBox="0 0 55 56">
  <g id="unselectall" transform="translate(-0.5)">
    <g id="Group_13" data-name="Group 13">
      <path id="Path_281" data-name="Path 281" d="M44.136,52H8.864A8.364,8.364,0,0,1,.5,43.636V8.364A8.364,8.364,0,0,1,8.864,0H44.136A8.364,8.364,0,0,1,52.5,8.364V43.636A8.364,8.364,0,0,1,44.136,52Z" fill="#0e3d50"/>
      <path id="Path_282" data-name="Path 282" d="M44.5,14h-18a1,1,0,0,1,0-2h18a1,1,0,0,1,0,2Z" fill="#fff"/>
      <path id="Path_283" data-name="Path 283" d="M44.5,28h-18a1,1,0,0,1,0-2h18a1,1,0,0,1,0,2Z" fill="#fff"/>
      <path id="Path_284" data-name="Path 284" d="M44.5,42h-18a1,1,0,0,1,0-2h18a1,1,0,0,1,0,2Z" fill="#fff"/>
      <path id="Path_285" data-name="Path 285" d="M12.571,17a1,1,0,0,1-.6-.2L7.4,13.371a1,1,0,1,1,1.2-1.6l3.822,2.866L18.67,7.35a1,1,0,0,1,1.518,1.3l-6.857,8A1,1,0,0,1,12.571,17Z" fill="#fff"/>
      <path id="Path_286" data-name="Path 286" d="M12.571,31a1,1,0,0,1-.6-.2L7.4,27.371a1,1,0,1,1,1.2-1.6l3.822,2.866L18.67,21.35a1,1,0,0,1,1.518,1.3l-6.857,8A1,1,0,0,1,12.571,31Z" fill="#fff"/>
      <path id="Path_287" data-name="Path 287" d="M12.571,46a1,1,0,0,1-.6-.2L7.4,42.37a1,1,0,1,1,1.2-1.6l3.822,2.866L18.67,36.35a1,1,0,0,1,1.518,1.3l-6.857,8A1,1,0,0,1,12.571,46Z" fill="#fff"/>
    </g>
    <g id="Group_14" data-name="Group 14">
      <circle id="Ellipse_8" data-name="Ellipse 8" cx="12" cy="12" r="12" transform="translate(31.5 32)" fill="#ed7161"/>
      <path id="Path_288" data-name="Path 288" d="M44.914,44l3.536-3.536a1,1,0,0,0-1.414-1.414L43.5,42.586,39.964,39.05a1,1,0,0,0-1.414,1.414L42.086,44,38.55,47.536a1,1,0,1,0,1.414,1.414L43.5,45.414l3.536,3.536a1,1,0,0,0,1.414-1.414Z" fill="#fff"/>
    </g>
  </g>
</svg>
