<svg id="viewMaterial" xmlns="http://www.w3.org/2000/svg" width="24" height="24" viewBox="0 0 24 24">
  <path id="Path_273" data-name="Path 273" d="M0,0H24V24H0Z" fill="none"/>
  <path id="Path_274" data-name="Path 274" d="M11.5,9A2.5,2.5,0,1,0,14,11.5,2.5,2.5,0,0,0,11.5,9ZM20,4H4A2.006,2.006,0,0,0,2,6V18a2.006,2.006,0,0,0,2,2H20a2.006,2.006,0,0,0,2-2V6A2.006,2.006,0,0,0,20,4ZM16.79,18.21,13.88,15.3a4.434,4.434,0,0,1-2.39.7,4.529,4.529,0,1,1,3.81-2.11l2.91,2.9-1.42,1.42Z" fill="#0e3d50"/>
</svg>
